<svg width="29" height="18" viewBox="0 0 29 18" fill="none" xmlns="http://www.w3.org/2000/svg">
<path d="M11.5547 1.28299C11.5547 0.807408 11.9402 0.421875 12.4158 0.421875H28.138C28.6136 0.421875 28.9991 0.807408 28.9991 1.28299C28.9991 1.75856 28.6136 2.1441 28.138 2.1441H12.4158C11.9402 2.1441 11.5547 1.75856 11.5547 1.28299Z" fill="white"/>
<path d="M0 8.80252C0 8.32694 0.385532 7.94141 0.861111 7.94141H28.1389C28.6145 7.94141 29 8.32694 29 8.80252C29 9.2781 28.6145 9.66363 28.1389 9.66363H0.861111C0.385533 9.66363 0 9.2781 0 8.80252Z" fill="white"/>
<path d="M11.5547 16.3181C11.5547 15.8426 11.9402 15.457 12.4158 15.457H28.138C28.6136 15.457 28.9991 15.8426 28.9991 16.3181C28.9991 16.7937 28.6136 17.1793 28.138 17.1793H12.4158C11.9402 17.1793 11.5547 16.7937 11.5547 16.3181Z" fill="white"/>
</svg>
